<?xml version="1.0" encoding="utf-8"?>
<!-- Generator: Adobe Illustrator 20.1.0, SVG Export Plug-In . SVG Version: 6.00 Build 0)  -->
<svg version="1.1" id="Layer_1" xmlns="http://www.w3.org/2000/svg" xmlns:xlink="http://www.w3.org/1999/xlink" x="0px" y="0px"
	 viewBox="0 0 816.1 421.9" style="enable-background:new 0 0 816.1 421.9;" xml:space="preserve">
<style type="text/css">
	.st0{fill:url(#SVGID_1_);}
	.st1{fill:#808080;}
	.st2{fill:#FF7BAC;}
	.st3{fill:#FFFFFF;}
	.st4{fill:none;stroke:#B3B3B3;stroke-width:2;stroke-miterlimit:10;}
	.st5{fill:none;stroke:#FF7BAC;stroke-width:3;stroke-miterlimit:10;}
	.st6{fill:#F2F2F2;}
	.st7{fill:#B3B3B3;}
	.st8{clip-path:url(#SVGID_187_);}
	.st9{clip-path:url(#SVGID_193_);}
	.st10{clip-path:url(#SVGID_199_);}
	.st11{clip-path:url(#SVGID_205_);}
	.st12{clip-path:url(#SVGID_211_);}
	.st13{clip-path:url(#SVGID_217_);}
	.st14{clip-path:url(#SVGID_223_);}
	.st15{clip-path:url(#SVGID_233_);}
	.st16{clip-path:url(#SVGID_239_);}
	.st17{fill:none;stroke:#B3B3B3;stroke-miterlimit:10;}
	.st18{clip-path:url(#SVGID_245_);}
	.st19{clip-path:url(#SVGID_251_);}
	.st20{fill:none;stroke:#FF7BAC;stroke-width:2;stroke-miterlimit:10;}
	.st21{clip-path:url(#SVGID_257_);}
	.st22{clip-path:url(#SVGID_263_);}
	.st23{clip-path:url(#SVGID_269_);}
	.st24{clip-path:url(#SVGID_279_);}
	.st25{clip-path:url(#SVGID_285_);}
	.st26{clip-path:url(#SVGID_291_);}
	.st27{clip-path:url(#SVGID_297_);}
	.st28{clip-path:url(#SVGID_303_);}
	.st29{clip-path:url(#SVGID_309_);}
	.st30{clip-path:url(#SVGID_315_);}
	.st31{clip-path:url(#SVGID_321_);}
	.st32{clip-path:url(#SVGID_331_);}
	.st33{clip-path:url(#SVGID_339_);}
	.st34{clip-path:url(#SVGID_341_);}
	.st35{clip-path:url(#SVGID_345_);}
	.st36{clip-path:url(#SVGID_349_);}
	.st37{clip-path:url(#SVGID_351_);}
	.st38{clip-path:url(#SVGID_355_);}
	.st39{clip-path:url(#SVGID_359_);}
	.st40{clip-path:url(#SVGID_361_);}
	.st41{clip-path:url(#SVGID_365_);}
	.st42{clip-path:url(#SVGID_369_);}
	.st43{clip-path:url(#SVGID_371_);}
	.st44{clip-path:url(#SVGID_375_);}
	.st45{clip-path:url(#SVGID_379_);}
	.st46{clip-path:url(#SVGID_381_);}
	.st47{clip-path:url(#SVGID_385_);}
	.st48{clip-path:url(#SVGID_389_);}
	.st49{clip-path:url(#SVGID_391_);}
	.st50{clip-path:url(#SVGID_395_);}
	.st51{clip-path:url(#SVGID_399_);}
	.st52{clip-path:url(#SVGID_401_);}
	.st53{clip-path:url(#SVGID_405_);}
</style>
<g>
	<g>
		<polygon class="st1" points="813.1,421.7 0,303.1 0,7.6 813.1,126.1 		"/>
	</g>
	<g>
		<path class="st2" d="M1.4,0l87.5,66.2L176.4,0l0.5,181.8H1.9L1.4,0z"/>
		<path class="st2" d="M189.8,6.2c179,0-4,0,175,0v91.5c0,48.2-39.2,87.5-87.5,87.5c-48.3,0-87.5-39.2-87.5-87.5V6.2z"/>
		<path class="st2" d="M546.9,6.8v88h-30.5v1.8c50.2,11.2,41,85.5-9.5,85.5H376.6V94.8h35.2V93c-24.5-4.8-39.8-20-39.8-42.8
			c0-22.5,19.5-43.5,43.5-43.5H546.9z"/>
		<path class="st2" d="M651.7,6.8v175h-91V6.8H651.7z"/>
		<path class="st2" d="M816.1,29l-65.2,65l65.2,65.2c-36,36-94.2,36-130.2,0s-36-94.2,0-130.2S780.1-7,816.1,29z"/>
	</g>
	<g>
		<path class="st2" d="M151.3,234.4l110.5,187.2c-193.3,0-28.8,0-221,0L151.3,234.4z"/>
		<path class="st2" d="M417.6,317.9c0,22.8-10.5,42.8-27.2,55.8l25.8,48.2c-51.2,0-102.5,0-153.8,0c0-194,0-40,0-175.2h84
			C385.6,246.7,417.6,278.4,417.6,317.9z"/>
		<path class="st2" d="M545.2,421.9h-87.5v-87.5h-36.2v-87.8h157.8v87.8h-34V421.9z"/>
		<path class="st2" d="M759.5,246.7v88H729v1.8c50.2,11.2,41,85.5-9.5,85.5H589.2v-87.2h35.2v-1.8c-24.5-4.8-39.8-20-39.8-42.8
			c0-22.5,19.5-43.5,43.5-43.5H759.5z"/>
	</g>
	<g>
		<path class="st6" d="M169.7,210.1v3.4h7.5v3.8h-7.5v5.8h-5v-16.8h13.1v3.8H169.7z"/>
		<path class="st6" d="M258.7,214.6c0,4.9-3.9,8.6-9.2,8.6c-5.3,0-9.2-3.7-9.2-8.6c0-4.9,3.9-8.5,9.2-8.5
			C254.8,206.1,258.7,209.7,258.7,214.6z M245.4,214.7c0,2.5,1.9,4.4,4.1,4.4s4-1.9,4-4.4c0-2.5-1.8-4.4-4-4.4
			C247.3,210.3,245.4,212.1,245.4,214.7z"/>
		<path class="st6" d="M330.1,218.5h-2.6v4.5h-5v-16.8h7.8c4.5,0,7.1,2.2,7.1,6c0,2.5-1,4.3-2.8,5.4l3.4,5.5h-5.7L330.1,218.5z
			 M330.3,214.7c1.5,0,2.4-0.8,2.4-2.3c0-1.5-0.9-2.3-2.4-2.3h-2.9v4.6H330.3z"/>
		<path class="st6" d="M477.6,210.2v12.8h-5v-12.8h-4.9v-4h14.8v4H477.6z"/>
		<path class="st6" d="M556.5,223.1v-6.3h-6v6.3h-5v-16.8h5v6.7h6v-6.7h5v16.8H556.5z"/>
		<path class="st6" d="M631.3,210.1v2.6h7.9v3.8h-7.9v2.7h9v3.8h-14v-16.8H640v3.8H631.3z"/>
	</g>
</g>
</svg>
