<?xml version="1.0" encoding="UTF-8"?>
<svg width="279px" height="145px" viewBox="0 0 279 145" version="1.1" xmlns="http://www.w3.org/2000/svg" xmlns:xlink="http://www.w3.org/1999/xlink">
    <!-- Generator: Sketch 40.3 (33839) - http://www.bohemiancoding.com/sketch -->
    <title>home_header</title>
    <desc>Created with Sketch.</desc>
    <defs></defs>
    <g id="Welcome" stroke="none" stroke-width="1" fill="none" fill-rule="evenodd">
        <g id="Mobile-Portrait" transform="translate(-21.000000, -139.000000)">
            <g id="home_header" style="mix-blend-mode: overlay;" transform="translate(21.000000, 139.000000)">
                <g id="Layer_1">
                    <g id="Group">
                        <polygon id="Shape" fill="#444F59" points="277.961456 144.685677 0 103.993902 0 2.60756733 277.961456 43.2650317"></polygon>
                        <g transform="translate(0.341854, 0.000000)" id="Shape" fill="#F35192">
                            <polygon points="0.136741584 0 30.0489632 22.7132839 59.9611847 0 60.1321117 62.3757554 0.307668565 62.3757554"></polygon>
                            <path d="M64.5420278,2.12722598 C125.733887,2.12722598 63.174612,2.12722598 124.366471,2.12722598 L124.366471,33.5209643 C124.366471,50.0584308 110.965796,63.5422987 94.4542494,63.5422987 C77.9427031,63.5422987 64.5420278,50.0927409 64.5420278,33.5209643 L64.5420278,2.12722598 L64.5420278,2.12722598 Z"></path>
                            <path d="M186.618077,2.33308656 L186.618077,32.5259715 L176.191531,32.5259715 L176.191531,33.1435532 C193.3526,36.986284 190.207544,62.4786857 172.943919,62.4786857 L128.400348,62.4786857 L128.400348,32.5259715 L140.433607,32.5259715 L140.433607,31.9083897 C132.058185,30.2615051 126.827819,25.0463704 126.827819,17.2236684 C126.827819,9.50389673 133.493972,2.29877647 141.698467,2.29877647 L186.618077,2.29877647 L186.618077,2.33308656 Z"></path>
                            <polygon points="222.444372 2.33308656 222.444372 62.3757554 191.335662 62.3757554 191.335662 2.33308656"></polygon>
                            <path d="M278.645163,9.94992799 L256.356285,32.2514907 L278.645163,54.6216736 C266.338421,66.9733084 246.44252,66.9733084 234.135778,54.6216736 C221.829035,42.2700389 221.829035,22.3015627 234.135778,9.94992799 C246.44252,-2.40170676 266.338421,-2.40170676 278.645163,9.94992799 L278.645163,9.94992799 Z"></path>
                        </g>
                        <g transform="translate(13.674158, 80.285626)" id="Shape" fill="#F35192">
                            <path d="M38.0483458,0.137240386 L75.8232085,64.365741 L0.273483169,64.365741 L38.0483458,0.137240386 L38.0483458,0.137240386 Z"></path>
                            <path d="M129.084056,28.786171 C129.084056,36.608873 125.494589,43.4708923 119.785628,47.9312048 L128.60546,64.4686713 L76.0283209,64.4686713 L76.0283209,4.35738226 L104.744054,4.35738226 C118.144729,4.35738226 129.084056,15.2336828 129.084056,28.786171 L129.084056,28.786171 Z"></path>
                            <polygon points="172.704621 64.4686713 142.792399 64.4686713 142.792399 34.4473369 130.417286 34.4473369 130.417286 4.32307216 184.361841 4.32307216 184.361841 34.4473369 172.738806 34.4473369 172.738806 64.4686713"></polygon>
                            <path d="M245.963925,4.35738226 L245.963925,34.5502672 L235.537379,34.5502672 L235.537379,35.1678489 C252.698448,39.0105797 249.553391,64.5029814 232.289766,64.5029814 L187.746195,64.5029814 L187.746195,34.5845773 L199.779455,34.5845773 L199.779455,33.9669955 C191.404033,32.3201109 186.173667,27.1049762 186.173667,19.2822742 C186.173667,11.5625025 192.839819,4.35738226 201.044314,4.35738226 L245.963925,4.35738226 L245.963925,4.35738226 Z"></path>
                        </g>
                    </g>
                </g>
                <path d="M75,77.496 L75,69.12 L80.184,69.12 L80.184,70.416 L76.692,70.416 L76.692,72.612 L79.356,72.612 L79.356,73.908 L76.692,73.908 L76.692,77.496 L75,77.496 Z M101.088001,73.284 C101.088001,72.4519958 100.852003,71.7880025 100.380001,71.292 C99.9079984,70.7959975 99.2920046,70.548 98.5320008,70.548 C97.771997,70.548 97.1540031,70.7979975 96.6780008,71.298 C96.2019984,71.7980025 95.9640008,72.4619959 95.9640008,73.29 C95.9640008,74.1180041 96.2019984,74.7819975 96.6780008,75.282 C97.1540031,75.7820025 97.771997,76.032 98.5320008,76.032 C99.2920046,76.032 99.9079984,75.7820025 100.380001,75.282 C100.852003,74.7819975 101.088001,74.1160042 101.088001,73.284 L101.088001,73.284 Z M95.4840008,76.368 C94.6599966,75.559996 94.2480008,74.5340062 94.2480008,73.29 C94.2480008,72.0459938 94.6619966,71.020004 95.4900008,70.212 C96.3180049,69.403996 97.3339947,69 98.5380008,69 C99.7420068,69 100.755997,69.403996 101.580001,70.212 C102.404005,71.020004 102.816001,72.0459938 102.816001,73.29 C102.816001,74.5340062 102.404005,75.559996 101.580001,76.368 C100.755997,77.176004 99.7400068,77.58 98.5320008,77.58 C97.3239947,77.58 96.3080049,77.176004 95.4840008,76.368 L95.4840008,76.368 Z M119.040002,74.16 L119.040002,77.496 L117.348002,77.496 L117.348002,69.12 L120.432002,69.12 C121.400006,69.12 122.145999,69.3619976 122.670002,69.846 C123.194004,70.3300024 123.456002,70.9279964 123.456002,71.64 C123.456002,72.1680026 123.296003,72.6599977 122.976002,73.116 C122.656,73.5720023 122.152005,73.8839992 121.464002,74.052 L123.600002,77.496 L121.596002,77.496 L119.592002,74.16 L119.040002,74.16 Z M119.040002,70.416 L119.040002,72.864 L120.432002,72.864 C120.856004,72.864 121.18,72.7540011 121.404002,72.534 C121.628003,72.3139989 121.740002,72.0160019 121.740002,71.64 C121.740002,71.2639981 121.628003,70.9660011 121.404002,70.746 C121.18,70.5259989 120.856004,70.416 120.432002,70.416 L119.040002,70.416 Z M154.644003,70.416 L154.644003,69.12 L160.848003,69.12 L160.848003,70.416 L158.580003,70.416 L158.580003,77.496 L156.900003,77.496 L156.900003,70.416 L154.644003,70.416 Z M180.636004,69.12 L182.328004,69.12 L182.328004,77.496 L180.636004,77.496 L180.636004,73.908 L177.036004,73.908 L177.036004,77.496 L175.344004,77.496 L175.344004,69.12 L177.036004,69.12 L177.036004,72.612 L180.636004,72.612 L180.636004,69.12 Z M202.164005,69.096 L202.164005,70.392 L199.020005,70.392 L199.020005,72.588 L201.804005,72.588 L201.804005,73.884 L199.020005,73.884 L199.020005,76.2 L202.164005,76.2 L202.164005,77.496 L197.328005,77.496 L197.328005,69.096 L202.164005,69.096 Z" id="FOR-THE" fill="#FFFFFF"></path>
            </g>
        </g>
    </g>
</svg>