<?xml version="1.0" encoding="UTF-8"?>
<svg width="140px" height="73px" viewBox="0 0 140 73" version="1.1" xmlns="http://www.w3.org/2000/svg" xmlns:xlink="http://www.w3.org/1999/xlink">
    <!-- Generator: Sketch 40.3 (33839) - http://www.bohemiancoding.com/sketch -->
    <title>footer-logo</title>
    <desc>Created with Sketch.</desc>
    <defs></defs>
    <g id="Welcome" stroke="none" stroke-width="1" fill="none" fill-rule="evenodd">
        <g id="footer-logo">
            <g id="Layer_1">
                <g id="Group">
                    <polygon id="Shape" fill="#444F59" points="139.480728 72.3428385 0.5 51.9969512 0.5 1.30378367 139.480728 21.6325158"></polygon>
                    <g transform="translate(0.170927, 0.000000)" id="Shape" fill="#F35192">
                        <polygon points="15.2851838 11.3566419 30.2412946 0 30.3267581 31.1878777 0.340974875 31.2279053 0.32907302 0"></polygon>
                        <path d="M32.7710139,1.06361299 C63.3669434,1.06361299 32.087306,1.06361299 62.6832355,1.06361299 L62.6832355,16.7604821 C62.6832355,25.0292154 55.9828978,31.7711494 47.7271247,31.7711494 C39.4713515,31.7711494 32.7710139,25.0463704 32.7710139,16.7604821 L32.7710139,1.06361299 L32.7710139,1.06361299 Z"></path>
                        <path d="M93.8090386,1.16654328 L93.8090386,16.2629857 L88.5957657,16.2629857 L88.5957657,16.5717766 C97.1763001,18.493142 95.6037719,31.2393429 86.9719594,31.2393429 L64.7001738,31.2393429 L64.7001738,16.2629857 L70.7168036,16.2629857 L70.7168036,15.9541949 C66.5290925,15.1307526 63.9139097,12.5231852 63.9139097,8.61183422 C63.9139097,4.75194837 67.2469859,1.14938823 71.3492334,1.14938823 L93.8090386,1.14938823 L93.8090386,1.16654328 Z"></path>
                        <polygon points="111.722186 1.16654328 111.722186 31.1878777 96.1678309 31.1878777 96.1678309 1.16654328"></polygon>
                        <path d="M139.308795,5.13186303 L128.164356,16.2826444 L139.308795,27.4677359 C133.155424,33.6435532 123.207473,33.6435532 117.054102,27.4677359 C110.900731,21.2919185 110.900731,11.3076804 117.054102,5.13186303 C123.207473,-1.04395434 133.155424,-1.04395434 139.308795,5.13186303 L139.308795,5.13186303 Z"></path>
                    </g>
                    <g transform="translate(4.337079, 40.142813)" id="Shape" fill="#F35192">
                        <path d="M19.0241729,0.068620193 L37.9116043,32.1828705 L0.136741584,32.1828705 L19.0241729,0.068620193 L19.0241729,0.068620193 Z"></path>
                        <path d="M65.5420278,14.3930855 C65.5420278,18.3044365 63.7472945,21.7354461 60.8928139,23.9656024 L65.30273,32.2343357 L39.0141604,32.2343357 L39.0141604,2.17869113 L53.3720268,2.17869113 C60.0723644,2.17869113 65.5420278,7.61684142 65.5420278,14.3930855 L65.5420278,14.3930855 Z"></path>
                        <polygon points="88.8523105 32.2343357 73.8961997 32.2343357 73.8961997 17.2236684 67.708643 17.2236684 67.708643 2.16153608 94.6809205 2.16153608 94.6809205 17.2236684 88.8694032 17.2236684 88.8694032 32.2343357"></polygon>
                        <path d="M126.481962,2.17869113 L126.481962,17.2751336 L121.26869,17.2751336 L121.26869,17.5839245 C129.849224,19.5052899 128.276696,32.2514907 119.644883,32.2514907 L97.3730976,32.2514907 L97.3730976,17.2922886 L103.389727,17.2922886 L103.389727,16.9834978 C99.2020163,16.1600555 96.5868335,13.5524881 96.5868335,9.64113712 C96.5868335,5.78125126 99.9199096,2.17869113 104.022157,2.17869113 L126.481962,2.17869113 L126.481962,2.17869113 Z"></path>
                    </g>
                </g>
            </g>
            <path d="M38,38.748 L38,34.56 L40.592,34.56 L40.592,35.208 L38.846,35.208 L38.846,36.306 L40.178,36.306 L40.178,36.954 L38.846,36.954 L38.846,38.748 L38,38.748 Z M51.0440004,36.642 C51.0440004,36.2259979 50.9260016,35.8940012 50.6900004,35.646 C50.4539992,35.3979988 50.1460023,35.274 49.7660004,35.274 C49.3859985,35.274 49.0770016,35.3989987 48.8390004,35.649 C48.6009992,35.8990012 48.4820004,36.2309979 48.4820004,36.645 C48.4820004,37.0590021 48.6009992,37.3909987 48.8390004,37.641 C49.0770016,37.8910012 49.3859985,38.016 49.7660004,38.016 C50.1460023,38.016 50.4539992,37.8910012 50.6900004,37.641 C50.9260016,37.3909987 51.0440004,37.0580021 51.0440004,36.642 L51.0440004,36.642 Z M48.2420004,38.184 C47.8299983,37.779998 47.6240004,37.2670031 47.6240004,36.645 C47.6240004,36.0229969 47.8309983,35.510002 48.2450004,35.106 C48.6590025,34.701998 49.1669974,34.5 49.7690004,34.5 C50.3710034,34.5 50.8779983,34.701998 51.2900004,35.106 C51.7020024,35.510002 51.9080004,36.0229969 51.9080004,36.645 C51.9080004,37.2670031 51.7020024,37.779998 51.2900004,38.184 C50.8779983,38.588002 50.3700034,38.79 49.7660004,38.79 C49.1619974,38.79 48.6540024,38.588002 48.2420004,38.184 L48.2420004,38.184 Z M60.0200008,37.08 L60.0200008,38.748 L59.1740008,38.748 L59.1740008,34.56 L60.7160008,34.56 C61.2000032,34.56 61.5729995,34.6809988 61.8350008,34.923 C62.0970021,35.1650012 62.2280008,35.4639982 62.2280008,35.82 C62.2280008,36.0840013 62.1480016,36.3299989 61.9880008,36.558 C61.828,36.7860011 61.5760025,36.9419996 61.2320008,37.026 L62.3000008,38.748 L61.2980008,38.748 L60.2960008,37.08 L60.0200008,37.08 Z M60.0200008,35.208 L60.0200008,36.432 L60.7160008,36.432 C60.9280018,36.432 61.0900002,36.3770005 61.2020008,36.267 C61.3140013,36.1569994 61.3700008,36.0080009 61.3700008,35.82 C61.3700008,35.6319991 61.3140013,35.4830005 61.2020008,35.373 C61.0900002,35.2629994 60.9280018,35.208 60.7160008,35.208 L60.0200008,35.208 Z M77.8220015,35.208 L77.8220015,34.56 L80.9240015,34.56 L80.9240015,35.208 L79.7900015,35.208 L79.7900015,38.748 L78.9500015,38.748 L78.9500015,35.208 L77.8220015,35.208 Z M90.8180019,34.56 L91.6640019,34.56 L91.6640019,38.748 L90.8180019,38.748 L90.8180019,36.954 L89.0180019,36.954 L89.0180019,38.748 L88.1720019,38.748 L88.1720019,34.56 L89.0180019,34.56 L89.0180019,36.306 L90.8180019,36.306 L90.8180019,34.56 Z M101.582002,34.548 L101.582002,35.196 L100.010002,35.196 L100.010002,36.294 L101.402002,36.294 L101.402002,36.942 L100.010002,36.942 L100.010002,38.1 L101.582002,38.1 L101.582002,38.748 L99.1640023,38.748 L99.1640023,34.548 L101.582002,34.548 Z" id="FOR-THE" fill="#FFFFFF"></path>
        </g>
    </g>
</svg>
