<?xml version="1.0" encoding="UTF-8"?>
<svg width="278px" height="145px" viewBox="0 0 278 145" version="1.1" xmlns="http://www.w3.org/2000/svg" xmlns:xlink="http://www.w3.org/1999/xlink">
    <!-- Generator: Sketch 40.3 (33839) - http://www.bohemiancoding.com/sketch -->
    <title>home_header</title>
    <desc>Created with Sketch.</desc>
    <defs></defs>
    <g id="Welcome" stroke="none" stroke-width="1" fill="none" fill-rule="evenodd">
        <g id="Mobile-Portrait" transform="translate(-21.000000, -139.000000)">
            <g id="home_header" style="mix-blend-mode: overlay;" transform="translate(20.000000, 139.000000)">
                <g id="Layer_1">
                    <g id="Group">
                        <polygon id="Shape" fill="#444F59" points="278.961456 144.685677 1 103.993902 1 2.60756733 278.961456 43.2650317"></polygon>
                        <g transform="translate(0.341854, 0.000000)" id="Shape" fill="#F35192">
                            <polygon points="30.5703676 22.7132839 60.4825892 0 60.6535162 62.3757554 0.68194975 62.4558105 0.658146039 0"></polygon>
                            <path d="M65.5420278,2.12722598 C126.733887,2.12722598 64.174612,2.12722598 125.366471,2.12722598 L125.366471,33.5209643 C125.366471,50.0584308 111.965796,63.5422987 95.4542494,63.5422987 C78.9427031,63.5422987 65.5420278,50.0927409 65.5420278,33.5209643 L65.5420278,2.12722598 L65.5420278,2.12722598 Z"></path>
                            <path d="M187.618077,2.33308656 L187.618077,32.5259715 L177.191531,32.5259715 L177.191531,33.1435532 C194.3526,36.986284 191.207544,62.4786857 173.943919,62.4786857 L129.400348,62.4786857 L129.400348,32.5259715 L141.433607,32.5259715 L141.433607,31.9083897 C133.058185,30.2615051 127.827819,25.0463704 127.827819,17.2236684 C127.827819,9.50389673 134.493972,2.29877647 142.698467,2.29877647 L187.618077,2.29877647 L187.618077,2.33308656 Z"></path>
                            <polygon points="223.444372 2.33308656 223.444372 62.3757554 192.335662 62.3757554 192.335662 2.33308656"></polygon>
                            <path d="M278.61759,10.2637261 L256.328712,32.5652888 L278.61759,54.9354717 C266.310847,67.2871064 246.414947,67.2871064 234.108204,54.9354717 C221.801462,42.583837 221.801462,22.6153608 234.108204,10.2637261 C246.414947,-2.08790869 266.310847,-2.08790869 278.61759,10.2637261 L278.61759,10.2637261 Z"></path>
                        </g>
                        <g transform="translate(8.674158, 80.285626)" id="Shape" fill="#F35192">
                            <path d="M38.0483458,0.137240386 L75.8232085,64.365741 L0.273483169,64.365741 L38.0483458,0.137240386 L38.0483458,0.137240386 Z"></path>
                            <path d="M131.084056,28.786171 C131.084056,36.608873 127.494589,43.4708923 121.785628,47.9312048 L130.60546,64.4686713 L78.0283209,64.4686713 L78.0283209,4.35738226 L106.744054,4.35738226 C120.144729,4.35738226 131.084056,15.2336828 131.084056,28.786171 L131.084056,28.786171 Z"></path>
                            <polygon points="177.704621 64.4686713 147.792399 64.4686713 147.792399 34.4473369 135.417286 34.4473369 135.417286 4.32307216 189.361841 4.32307216 189.361841 34.4473369 177.738806 34.4473369 177.738806 64.4686713"></polygon>
                            <path d="M252.963925,4.35738226 L252.963925,34.5502672 L242.537379,34.5502672 L242.537379,35.1678489 C259.698448,39.0105797 256.553391,64.5029814 239.289766,64.5029814 L194.746195,64.5029814 L194.746195,34.5845773 L206.779455,34.5845773 L206.779455,33.9669955 C198.404033,32.3201109 193.173667,27.1049762 193.173667,19.2822742 C193.173667,11.5625025 199.839819,4.35738226 208.044314,4.35738226 L252.963925,4.35738226 L252.963925,4.35738226 Z"></path>
                        </g>
                    </g>
                </g>
                <path d="M76,77.496 L76,69.12 L81.184,69.12 L81.184,70.416 L77.692,70.416 L77.692,72.612 L80.356,72.612 L80.356,73.908 L77.692,73.908 L77.692,77.496 L76,77.496 Z M102.088001,73.284 C102.088001,72.4519958 101.852003,71.7880025 101.380001,71.292 C100.907998,70.7959975 100.292005,70.548 99.5320008,70.548 C98.771997,70.548 98.1540031,70.7979975 97.6780008,71.298 C97.2019984,71.7980025 96.9640008,72.4619959 96.9640008,73.29 C96.9640008,74.1180041 97.2019984,74.7819975 97.6780008,75.282 C98.1540031,75.7820025 98.771997,76.032 99.5320008,76.032 C100.292005,76.032 100.907998,75.7820025 101.380001,75.282 C101.852003,74.7819975 102.088001,74.1160042 102.088001,73.284 L102.088001,73.284 Z M96.4840008,76.368 C95.6599966,75.559996 95.2480008,74.5340062 95.2480008,73.29 C95.2480008,72.0459938 95.6619966,71.020004 96.4900008,70.212 C97.3180049,69.403996 98.3339947,69 99.5380008,69 C100.742007,69 101.755997,69.403996 102.580001,70.212 C103.404005,71.020004 103.816001,72.0459938 103.816001,73.29 C103.816001,74.5340062 103.404005,75.559996 102.580001,76.368 C101.755997,77.176004 100.740007,77.58 99.5320008,77.58 C98.3239947,77.58 97.3080049,77.176004 96.4840008,76.368 L96.4840008,76.368 Z M120.040002,74.16 L120.040002,77.496 L118.348002,77.496 L118.348002,69.12 L121.432002,69.12 C122.400006,69.12 123.145999,69.3619976 123.670002,69.846 C124.194004,70.3300024 124.456002,70.9279964 124.456002,71.64 C124.456002,72.1680026 124.296003,72.6599977 123.976002,73.116 C123.656,73.5720023 123.152005,73.8839992 122.464002,74.052 L124.600002,77.496 L122.596002,77.496 L120.592002,74.16 L120.040002,74.16 Z M120.040002,70.416 L120.040002,72.864 L121.432002,72.864 C121.856004,72.864 122.18,72.7540011 122.404002,72.534 C122.628003,72.3139989 122.740002,72.0160019 122.740002,71.64 C122.740002,71.2639981 122.628003,70.9660011 122.404002,70.746 C122.18,70.5259989 121.856004,70.416 121.432002,70.416 L120.040002,70.416 Z M155.644003,70.416 L155.644003,69.12 L161.848003,69.12 L161.848003,70.416 L159.580003,70.416 L159.580003,77.496 L157.900003,77.496 L157.900003,70.416 L155.644003,70.416 Z M181.636004,69.12 L183.328004,69.12 L183.328004,77.496 L181.636004,77.496 L181.636004,73.908 L178.036004,73.908 L178.036004,77.496 L176.344004,77.496 L176.344004,69.12 L178.036004,69.12 L178.036004,72.612 L181.636004,72.612 L181.636004,69.12 Z M203.164005,69.096 L203.164005,70.392 L200.020005,70.392 L200.020005,72.588 L202.804005,72.588 L202.804005,73.884 L200.020005,73.884 L200.020005,76.2 L203.164005,76.2 L203.164005,77.496 L198.328005,77.496 L198.328005,69.096 L203.164005,69.096 Z" id="FOR-THE" fill="#FFFFFF"></path>
            </g>
        </g>
    </g>
</svg>
