<?xml version="1.0" encoding="UTF-8"?>
<svg width="517px" height="269px" viewBox="0 0 517 269" version="1.1" xmlns="http://www.w3.org/2000/svg" xmlns:xlink="http://www.w3.org/1999/xlink">
    <!-- Generator: Sketch 40.3 (33839) - http://www.bohemiancoding.com/sketch -->
    <title>home_header copy</title>
    <desc>Created with Sketch.</desc>
    <defs></defs>
    <g id="Welcome" stroke="none" stroke-width="1" fill="none" fill-rule="evenodd">
        <g id="Tablet-Portrait" transform="translate(-124.000000, -140.000000)">
            <g id="home_header-copy" style="mix-blend-mode: overlay;" transform="translate(124.000000, 140.000000)">
                <g id="Layer_1">
                    <g id="Group">
                        <polygon id="Shape" fill="#444F59" points="516.214132 268.701971 0 193.131533 0 4.84262505 516.214132 80.3493446"></polygon>
                        <g transform="translate(0.634872, 0.000000)" id="Shape" fill="#F35192">
                            <polygon points="0.253948657 0 55.8052173 42.1818129 111.356486 0 111.673922 115.840689 0.571384477 115.840689"></polygon>
                            <path d="M119.863766,3.95056254 C233.50579,3.95056254 117.324279,3.95056254 230.966303,3.95056254 L230.966303,62.2532194 C230.966303,92.9656572 206.079335,118.007126 175.415035,118.007126 C144.750734,118.007126 119.863766,93.0293759 119.863766,62.2532194 L119.863766,3.95056254 L119.863766,3.95056254 Z"></path>
                            <path d="M346.576429,4.33287504 L346.576429,60.4053756 L327.212844,60.4053756 L327.212844,61.5523131 C359.0834,68.6888132 353.242581,116.031845 321.181563,116.031845 L238.457789,116.031845 L238.457789,60.4053756 L260.80527,60.4053756 L260.80527,59.2584381 C245.250915,56.1999381 235.537379,46.514688 235.537379,31.9868128 C235.537379,17.6500939 247.917376,4.26915629 263.154295,4.26915629 L346.576429,4.26915629 L346.576429,4.33287504 Z"></path>
                            <polygon points="411.110977 4.33287504 411.110977 115.840689 353.337658 115.840689 353.337658 4.33287504"></polygon>
                            <path d="M515.483875,18.4784377 L474.090244,59.8956256 L515.483875,101.440251 C492.628496,124.379001 455.678966,124.379001 432.823587,101.440251 C409.968208,78.5015008 409.968208,41.4171879 432.823587,18.4784377 C455.678966,-4.46031255 492.628496,-4.46031255 515.483875,18.4784377 L515.483875,18.4784377 Z"></path>
                        </g>
                        <g transform="translate(24.394866, 149.101877)" id="Shape" fill="#F35192">
                            <path d="M70.6612137,0.254875003 L140.81453,119.536376 L0.507897313,119.536376 L70.6612137,0.254875003 L70.6612137,0.254875003 Z"></path>
                            <path d="M240.727532,53.4600318 C240.727532,67.9879069 234.06138,80.7316571 223.459023,89.0150947 L239.838712,119.727532 L142.195453,119.727532 L142.195453,8.09228133 L195.524671,8.09228133 C220.411639,8.09228133 240.727532,28.2911253 240.727532,53.4600318 L240.727532,53.4600318 Z"></path>
                            <polygon points="321.737153 119.727532 266.185885 119.727532 266.185885 63.9736256 243.203531 63.9736256 243.203531 8.02856258 343.386276 8.02856258 343.386276 63.9736256 321.80064 63.9736256 321.80064 119.727532"></polygon>
                            <path d="M457.790146,8.09228133 L457.790146,64.1647819 L438.426561,64.1647819 L438.426561,65.3117194 C470.297117,72.4482195 464.456298,119.791251 432.39528,119.791251 L349.671506,119.791251 L349.671506,64.2285007 L372.018987,64.2285007 L372.018987,63.0815631 C356.464632,60.0230631 346.751096,50.337813 346.751096,35.8099379 C346.751096,21.473219 359.131093,8.09228133 374.368012,8.09228133 L457.790146,8.09228133 L457.790146,8.09228133 Z"></path>
                        </g>
                    </g>
                </g>
                <text id="FOR-THE" font-family="OpenSans-Extrabold, Open Sans" font-size="18" font-weight="600" letter-spacing="19.8000031" fill="#FFFFFF">
                    <tspan x="152.167414" y="141.857143">FOR THE</tspan>
                </text>
            </g>
        </g>
    </g>
</svg>