<?xml version="1.0" encoding="UTF-8"?>
<svg width="20px" height="20px" viewBox="0 0 20 20" version="1.1" xmlns="http://www.w3.org/2000/svg" xmlns:xlink="http://www.w3.org/1999/xlink">
    <!-- Generator: Sketch 40.3 (33839) - http://www.bohemiancoding.com/sketch -->
    <title>twitter-icon</title>
    <desc>Created with Sketch.</desc>
    <defs></defs>
    <g id="Welcome" stroke="none" stroke-width="1" fill="none" fill-rule="evenodd">
        <g id="Event-—-Desktop" transform="translate(-487.000000, -2531.000000)">
            <g id="Group-3-Copy" transform="translate(0.000000, 2365.000000)">
                <g id="Group-2" transform="translate(442.000000, 73.000000)">
                    <g id="Group-10-Copy" transform="translate(45.000000, 93.000000)">
                        <g id="twitter-icon">
                            <ellipse id="Oval-5-Copy" fill="#F35192" cx="10" cy="10" rx="10" ry="10"></ellipse>
                            <path d="M15.3333333,7.0291667 C15.0310208,7.4715278 14.6655385,7.84843765 14.2368865,8.15989586 C14.2413987,8.22309031 14.2436546,8.31788197 14.2436546,8.44427085 C14.2436546,9.03107645 14.1579245,9.61675325 13.9864633,10.201302 C13.8150026,10.7858504 13.5544274,11.3467012 13.2047378,11.883854 C12.8550477,12.4210067 12.4388044,12.8960935 11.9560067,13.3091145 C11.4732093,13.7221352 10.8911447,14.051649 10.209814,14.297656 C9.52848286,14.543663 8.79977421,14.6666667 8.02368884,14.6666667 C6.80090245,14.6666667 5.68189519,14.3394096 4.66666667,13.6848956 C4.82459109,13.7029512 5.00056407,13.7119792 5.19458561,13.7119792 C6.20981373,13.7119792 7.11449537,13.4005206 7.9086293,12.7776042 C7.43485604,12.7685762 7.01071623,12.6230033 6.63620987,12.3408855 C6.2617035,12.0587673 6.00451219,11.6987847 5.86463633,11.2609376 C6.01353627,11.2835068 6.15115621,11.2947916 6.27749574,11.2947916 C6.47151729,11.2947916 6.66328251,11.2699652 6.85279181,11.2203123 C6.34743367,11.1164931 5.92893406,10.8648437 5.59729258,10.4653646 C5.2656515,10.0658856 5.09983096,9.60208324 5.09983096,9.07395848 L5.09983096,9.04687486 C5.40665532,9.21840258 5.73604048,9.31093744 6.08798644,9.32447905 C5.79018616,9.12586812 5.55329974,8.86631954 5.37732676,8.54583332 C5.20135377,8.22534711 5.11336728,7.87777767 5.11336728,7.50312502 C5.11336728,7.10590275 5.21263418,6.7380209 5.41116756,6.39947907 C5.95713466,7.07204873 6.62154559,7.61032989 7.40439952,8.01432296 C8.18725306,8.41831604 9.02538064,8.64288179 9.91878187,8.68802062 C9.88268475,8.5164929 9.86463618,8.34947919 9.86463618,8.18697908 C9.86463618,7.58211827 10.0778343,7.06640632 10.50423,6.63984363 C10.9306261,6.21328135 11.4461363,6 12.0507613,6 C12.682459,6 13.2148898,6.23020856 13.6480541,6.69062487 C14.1398759,6.5958332 14.6023688,6.41979189 15.0355331,6.16250011 C14.8685842,6.68159726 14.5482231,7.08333354 14.0744498,7.36770853 C14.4940778,7.32256929 14.9137054,7.20972242 15.3333333,7.0291667 L15.3333333,7.0291667 Z" id="Shape" fill="#FFFFFF"></path>
                        </g>
                    </g>
                </g>
            </g>
        </g>
    </g>
</svg>